# xmcd CD database file
#
# Track frame offsets:
#	150
#	13673
#	32832
#	46171
#	51563
#	64511
#	70143
#	85626
#	104248
#	121443
#	139077
#
# Disc length: 2044 seconds
#
# Revision: 1
# Processed by: cddbd v1.5.1PL2 Copyright (c) Steve Scherf et al.
# Submitted via: jetAudio 5
#
DISCID=9a07fa0b
DTITLE=Ben Kenney - Maduro
DYEAR=1900
DGENRE=
TTITLE0=Wrong
TTITLE1=Inside Pt.2
TTITLE2=Skyscraper
TTITLE3=Nigeria
TTITLE4=The Ether
TTITLE5=Nepenthe
TTITLE6=Conception and the Funeral
TTITLE7=It's Not Too Late
TTITLE8=How Would You Know
TTITLE9=Girl
TTITLE10=The Moment
EXTD=
EXTT0=
EXTT1=
EXTT2=
EXTT3=
EXTT4=
EXTT5=
EXTT6=
EXTT7=
EXTT8=
EXTT9=
EXTT10=
PLAYORDER=
